<?xml version="1.0" standalone="no"?>
<!DOCTYPE svg PUBLIC "-//W3C//DTD SVG 20010904//EN"
 "http://www.w3.org/TR/2001/REC-SVG-20010904/DTD/svg10.dtd">
<svg version="1.0" xmlns="http://www.w3.org/2000/svg"
 width="118.000000pt" height="50.000000pt" viewBox="0 0 118.000000 50.000000"
 preserveAspectRatio="xMidYMid meet">

<g transform="translate(0.000000,50.000000) scale(0.100000,-0.100000)"
fill="#FFFFFF" stroke="none">
<path d="M216 439 c-35 -30 -68 -89 -100 -181 -14 -38 -23 -48 -47 -53 -35 -8
-38 -23 -4 -27 l24 -3 -29 -67 -28 -68 24 0 c29 0 48 28 64 97 10 45 15 53 41
58 16 4 38 4 49 0 19 -6 20 -12 15 -83 -7 -85 0 -104 33 -95 18 4 21 10 15 27
-4 11 -7 45 -6 74 1 41 7 60 24 78 19 20 20 24 6 24 -21 0 -21 -2 -1 120 9 54
14 105 11 114 -10 26 -53 18 -91 -15z m48 -106 l-20 -98 -48 -3 c-48 -3 -48
-3 -42 23 28 110 93 212 119 186 8 -8 6 -36 -9 -108z"/>
<path d="M410 424 c-6 -14 -10 -30 -10 -35 0 -5 -20 -9 -45 -9 -45 0 -60 -12
-29 -24 9 -3 26 -6 39 -6 22 0 22 0 9 -62 -35 -163 0 -223 82 -142 l36 37 -6
-31 c-5 -19 -3 -33 5 -37 15 -10 26 10 35 60 3 22 12 48 19 59 8 10 11 24 9
31 -3 7 4 43 15 80 12 37 21 76 21 87 0 33 -33 17 -45 -22 l-10 -35 -42 9
c-38 8 -43 12 -43 37 0 37 -27 39 -40 3z m114 -73 c3 -5 1 -35 -6 -66 -9 -46
-20 -67 -54 -102 -45 -48 -77 -54 -82 -16 -2 13 11 61 29 108 l32 85 38 0 c21
0 40 -4 43 -9z"/>
<path d="M772 443 c-6 -2 -10 -8 -8 -12 3 -4 -6 -54 -19 -111 -20 -85 -29
-108 -56 -136 -31 -32 -69 -45 -69 -25 0 5 7 25 15 44 20 47 19 93 -1 101 -17
7 -74 -19 -74 -34 0 -6 11 -8 27 -4 26 7 26 7 18 -37 -21 -124 -6 -143 64 -83
l43 38 -6 -31 c-7 -28 7 -54 20 -40 7 6 84 304 84 322 0 15 -14 18 -38 8z"/>
<path d="M1075 310 c-9 -10 -15 -25 -12 -32 5 -14 -67 -114 -95 -132 -27 -17
-32 0 -18 61 8 40 9 58 2 61 -6 2 -9 9 -6 17 3 7 -3 18 -14 24 -26 14 -78 -21
-103 -69 -21 -39 -25 -100 -8 -117 13 -13 53 -1 81 24 17 15 18 14 18 -5 0
-17 6 -22 29 -22 22 0 37 11 70 53 23 28 46 59 51 67 12 18 21 7 41 -52 11
-34 11 -41 -2 -49 -10 -6 -19 -3 -31 11 -19 23 -34 26 -41 7 -8 -21 18 -47 46
-47 26 0 67 40 67 67 0 7 -10 32 -21 55 -17 34 -19 46 -10 60 23 37 -13 52
-44 18z m-153 -44 c19 12 -2 -70 -25 -93 -39 -43 -64 -25 -48 33 13 45 54 94
59 70 2 -9 8 -13 14 -10z"/>
</g>
</svg>
